PathFileType	4	(X/Y/Z)	/Users/itak/Documents/Research/Walk-IL/dataset/trc/00188_00008.trc
DataRate	CameraRate	NumFrames	NumMarkers	Units	OrigDataRate	OrigDataStartFrame	OrigNumFrames
100.000000	100.000000	4	53	mm	100.000000	203	812
Frame#	Time	RPSI			LPSI			L3			STRN			T10			C7			CLAV			RBAK			LBAK			LSHO			LUPA			LAEL			LAOL			LWTS			LWPS			LFRA			LIFD			LHPS			LHTS			RSHO			RUPA			RAEL			RAOL			RWTS			RWPS			RFRA			RIFD			RHTS			RHPS			RBHD			LFHD			RFHD			LBHD			LHIP			RHIP			RASI			LASI			LKNE			LTHI			LANK			LTIP			LTOE			LMT1			LMT5			LHEE			RKNE			RTHI			RANK			RTIP			RTOE			RMT1			RMT5			RHEE			
		X1	Y1	Z1	X2	Y2	Z2	X3	Y3	Z3	X4	Y4	Z4	X5	Y5	Z5	X6	Y6	Z6	X7	Y7	Z7	X8	Y8	Z8	X9	Y9	Z9	X10	Y10	Z10	X11	Y11	Z11	X12	Y12	Z12	X13	Y13	Z13	X14	Y14	Z14	X15	Y15	Z15	X16	Y16	Z16	X17	Y17	Z17	X18	Y18	Z18	X19	Y19	Z19	X20	Y20	Z20	X21	Y21	Z21	X22	Y22	Z22	X23	Y23	Z23	X24	Y24	Z24	X25	Y25	Z25	X26	Y26	Z26	X27	Y27	Z27	X28	Y28	Z28	X29	Y29	Z29	X30	Y30	Z30	X31	Y31	Z31	X32	Y32	Z32	X33	Y33	Z33	X34	Y34	Z34	X35	Y35	Z35	X36	Y36	Z36	X37	Y37	Z37	X38	Y38	Z38	X39	Y39	Z39	X40	Y40	Z40	X41	Y41	Z41	X42	Y42	Z42	X43	Y43	Z43	X44	Y44	Z44	X45	Y45	Z45	X46	Y46	Z46	X47	Y47	Z47	X48	Y48	Z48	X49	Y49	Z49	X50	Y50	Z50	X51	Y51	Z51	X52	Y52	Z52	X53	Y53	Z53	

204	2.03	-611.3056640625	1031.813598632812	535.0359497070312	-719.18359375	1037.512084960938	591.1180419921875	-659.1569213867188	1069.135375976562	558.9033813476562	-787.5589599609375	1277.450927734375	334.6300964355469	-636.9180908203125	1225.080200195312	593.5130004882812	-677.1489868164062	1494.297241210938	538.6222534179688	-780.4614868164062	1391.185913085938	363.9480895996094	-551.4638671875	1318.136474609375	544.2485961914062	-758.1546020507812	1473.015380859375	597.6124267578125	-864.2092895507812	1461.997924804688	575.7885131835938	-901.0738525390625	1334.775146484375	655.4052124023438	-914.4918823242188	1122.811279296875	682.0326538085938	-828.55615234375	1103.555419921875	662.5978393554688	-975.76513671875	879.7133178710938	613.8818969726562	-943.4146728515625	871.8553466796875	701.7777099609375	-934.1806640625	1014.286193847656	696.3155517578125	-954.84033203125	697.7674560546875	612.9739379882812	-953.0532836914062	800.8829345703125	695.574462890625	-993.410400390625	801.3303833007812	634.5933227539062	-555.507568359375	1469.231323242188	391.4603881835938	-486.310791015625	1403.488403320312	375.7891540527344	-426.6944885253906	1116.17529296875	375.1453857421875	-510.398193359375	1107.711303710938	424.2445068359375	-504.6630859375	886.4822387695312	258.8906555175781	-430.5764770507812	870.7255249023438	308.8418884277344	-421.7841796875	1043.232666015625	344.5755920410156	-526.0108642578125	695.2631225585938	258.5211486816406	-505.4990539550781	790.4896240234375	234.9511260986328	-443.8396301269531	787.5740356445312	287.4493408203125	-638.8605346679688	1643.403198242188	464.2210083007812	-808.3501586914062	1708.69091796875	342.894775390625	-686.6547241210938	1691.811157226562	302.6723022460938	-764.3551025390625	1667.97265625	515.0167846679688	-880.6148681640625	988.7631225585938	550.5172729492188	-570.1710815429688	972.364013671875	344.724609375	-652.8360595703125	1004.554626464844	293.39697265625	-877.0078735351562	1021.487731933594	413.2627563476562	-958.1420288085938	515.5092163085938	354.1997985839844	-955.2149047851562	651.0524291992188	416.1836853027344	-991.7430419921875	30.86947631835938	386.7075500488281	-987.8485107421875	282.6624145507812	364.8897705078125	-1017.752197265625	64.34099578857422	176.5584869384766	-960.7941284179688	54.27657318115234	208.2817535400391	-1053.574951171875	30.24589729309082	290.8631591796875	-912.5894775390625	36.81734466552734	420.6770629882812	-579.7553100585938	475.3269958496094	448.0827941894531	-587.3912963867188	732.531494140625	340.6670837402344	-427.7311096191406	126.3509063720703	787.2977294921875	-571.6902465820312	360.7649841308594	512.1806640625	-581.9727783203125	42.53760147094727	682.1726684570312	-585.9392700195312	59.89971160888672	739.1404418945312	-464.6712951660156	49.57989883422852	708.9230346679688	-455.4560546875	177.7635955810547	849.0767822265625	
205	2.04	-619.0133666992188	1033.076171875	528.2597045898438	-727.7822265625	1039.24609375	582.61376953125	-667.33203125	1070.878784179688	551.4353637695312	-793.09765625	1279.210571289062	325.2666320800781	-645.94970703125	1226.942260742188	586.072509765625	-685.8837890625	1496.07421875	530.8416137695312	-786.5994873046875	1392.985473632812	354.7344360351562	-559.9429931640625	1320.261474609375	538.0507202148438	-767.6854858398438	1474.6865234375	588.5866088867188	-873.3804931640625	1463.714477539062	565.2592163085938	-911.3900756835938	1336.529663085938	644.3469848632812	-924.7022094726562	1124.300903320312	670.5400390625	-838.4462890625	1105.532348632812	652.570556640625	-983.1763305664062	880.4771728515625	601.4005737304688	-953.015380859375	873.4721069335938	690.2612915039062	-944.2949829101562	1015.8505859375	684.5173950195312	-959.7396240234375	698.7451782226562	602.0263671875	-961.7105102539062	802.3713989257812	684.1575317382812	-1000.093017578125	801.5361328125	621.9349975585938	-562.2867431640625	1471.516967773438	385.4431762695312	-492.7357788085938	1406.10546875	370.7184753417969	-431.6567993164062	1119.215698242188	371.7596435546875	-516.3173217773438	1110.493896484375	419.1747741699219	-506.1505432128906	888.8392333984375	254.4427947998047	-433.0140991210938	873.5530395507812	305.9660949707031	-425.9166564941406	1046.203735351562	341.4406127929688	-526.7621459960938	697.4539794921875	254.1756286621094	-506.06201171875	792.7119750976562	230.7298126220703	-445.5442504882812	790.22607421875	284.5752868652344	-646.576171875	1645.011840820312	457.2824096679688	-813.8849487304688	1710.4521484375	332.9850769042969	-691.5729370117188	1693.398803710938	294.891845703125	-772.9017944335938	1669.808227539062	506.0029296875	-888.4622192382812	990.6058349609375	539.9916381835938	-575.2037353515625	974.0162963867188	338.6908569335938	-657.1406860351562	1006.219055175781	286.5106811523438	-883.2109985351562	1023.157653808594	402.7760620117188	-962.3560180664062	515.11572265625	348.1992797851562	-960.4545288085938	651.232177734375	409.0722045898438	-991.8839111328125	30.92484092712402	386.5176391601562	-990.1051025390625	282.1589965820312	361.6728515625	-1017.998291015625	62.07875823974609	175.8092193603516	-961.0736694335938	52.98115539550781	207.7606506347656	-1054.163208007812	29.67409133911133	290.7723999023438	-912.8212280273438	37.22827529907227	420.4387512207031	-587.7245483398438	473.9237060546875	433.1249084472656	-593.443359375	733.5216674804688	331.2926940917969	-435.5353393554688	135.0729370117188	781.861572265625	-578.438720703125	360.0377807617188	498.1762390136719	-580.66650390625	42.84603881835938	672.748291015625	-588.8155517578125	61.1792106628418	729.1567993164062	-466.2832946777344	54.7806510925293	704.5888061523438	-467.7232360839844	186.1722869873047	841.2817993164062	
206	2.05	-626.5656127929688	1034.275268554688	521.791748046875	-736.2950439453125	1041.029541015625	574.3072509765625	-675.389404296875	1072.656860351562	544.23876953125	-798.286865234375	1280.797485351562	315.8784484863281	-654.9510498046875	1228.83349609375	578.8221435546875	-694.5333251953125	1497.859741210938	523.0187377929688	-792.4188232421875	1394.612670898438	345.4472045898438	-568.3675537109375	1322.354858398438	532.062255859375	-777.134765625	1476.322875976562	579.4453735351562	-882.4421997070312	1465.324829101562	554.4993896484375	-921.6018676757812	1338.227172851562	633.1356201171875	-934.8870239257812	1125.7333984375	659.0747680664062	-848.3243408203125	1107.426635742188	642.7274780273438	-990.6690673828125	881.444580078125	588.6782836914062	-962.85302734375	874.982177734375	678.3701171875	-954.4993896484375	1017.314453125	672.6239013671875	-965.1409301757812	699.90576171875	590.4601440429688	-970.74755859375	803.7677001953125	672.1976318359375	-1007.07568359375	801.9171752929688	608.7579345703125	-568.8265991210938	1473.680908203125	379.5162658691406	-498.94873046875	1408.53759765625	365.8375854492188	-436.4530639648438	1122.052734375	368.2891845703125	-521.9422607421875	1113.0634765625	414.1778869628906	-507.8848571777344	891.1963500976562	249.9483489990234	-435.660888671875	876.2625122070312	302.8219909667969	-429.9905090332031	1048.993896484375	338.1962280273438	-528.0120849609375	699.700439453125	249.7164611816406	-507.0908203125	794.9766235351562	226.4152221679688	-447.6001892089844	792.7974853515625	281.409912109375	-654.1264038085938	1646.592895507812	450.3253173828125	-819.2540893554688	1712.171142578125	323.1349182128906	-696.3501586914062	1694.992431640625	287.1595764160156	-781.259765625	1671.57373046875	496.9547119140625	-896.109375	992.3432006835938	529.54248046875	-579.8616333007812	975.5564575195312	332.9883728027344	-661.05126953125	1007.730102539062	279.9063415527344	-889.1228637695312	1024.568725585938	392.3564147949219	-966.1366577148438	514.5677490234375	342.6758117675781	-965.2207641601562	651.1577758789062	402.4021301269531	-991.9048461914062	31.05182838439941	386.3113403320312	-991.959228515625	281.5997619628906	358.8595886230469	-1018.08349609375	60.06672286987305	175.0609588623047	-961.20556640625	51.87532424926758	207.2480926513672	-1054.595581054688	29.3239917755127	290.6506958007812	-912.9326782226562	37.53615188598633	420.2046203613281	-595.661865234375	472.6425476074219	417.8895263671875	-599.132080078125	734.5249633789062	322.0836181640625	-444.4761047363281	143.6732788085938	775.43798828125	-585.4964599609375	359.5223083496094	483.7413940429688	-579.5602416992188	43.52811431884766	661.184326171875	-591.99609375	62.66253662109375	717.1154174804688	-468.5013732910156	60.97057342529297	698.620361328125	-481.1483459472656	193.669921875	832.7613525390625	
207	2.06	-633.9303588867188	1035.415771484375	515.5848388671875	-744.65478515625	1042.844604492188	566.2093505859375	-683.2901611328125	1074.457153320312	537.2804565429688	-803.1083374023438	1282.184814453125	306.4949340820312	-663.8927612304688	1230.761108398438	571.7749633789062	-703.0956420898438	1499.654541015625	515.1504516601562	-797.9028930664062	1396.044311523438	336.0963745117188	-576.7308959960938	1324.423950195312	526.2861328125	-786.4935913085938	1477.925170898438	570.1896362304688	-891.3853759765625	1466.814697265625	543.5050048828125	-931.7068481445312	1339.840698242188	621.7410278320312	-945.0673828125	1127.101928710938	647.5908813476562	-858.2215576171875	1109.2216796875	633.0510864257812	-998.2196044921875	882.5731201171875	575.740478515625	-972.8875122070312	876.3578491210938	666.1143798828125	-964.7772216796875	1018.658203125	660.6201171875	-971.1361694335938	701.2125854492188	578.243408203125	-980.1241455078125	805.0352172851562	659.7058715820312	-1014.387268066406	802.507080078125	595.1112060546875	-575.1223754882812	1475.712768554688	373.6860656738281	-504.9416198730469	1410.7734375	361.1612243652344	-441.0893859863281	1124.672973632812	364.7725524902344	-527.3165893554688	1115.408935546875	409.2817077636719	-509.8762512207031	893.5399169921875	245.41064453125	-438.5032043457031	878.8367309570312	299.4093017578125	-433.99853515625	1051.590576171875	334.8642883300781	-529.72998046875	701.9873657226562	245.0877838134766	-508.5662536621094	797.273193359375	221.9810485839844	-449.9874877929688	795.2733764648438	277.9259338378906	-661.511474609375	1648.1279296875	443.3438415527344	-824.4470825195312	1713.846801757812	313.3449096679688	-700.9776000976562	1696.593505859375	279.4775695800781	-789.426513671875	1673.249755859375	487.8538208007812	-903.4749145507812	993.9869384765625	519.220458984375	-584.1807250976562	976.9664306640625	327.5558166503906	-664.609130859375	1009.086608886719	273.5464477539062	-894.7230834960938	1025.750366210938	382.0384826660156	-969.5420532226562	513.94287109375	337.5438537597656	-969.5756225585938	650.9879760742188	395.9927062988281	-991.8504028320312	31.22418212890625	386.0948486328125	-993.5128784179688	281.0240783691406	356.40380859375	-1018.098205566406	58.25224304199219	174.3223571777344	-961.2520141601562	50.93381118774414	206.7433471679688	-1054.91552734375	29.10568046569824	290.5093688964844	-912.9598388671875	37.77041625976562	419.9740600585938	-603.5388793945312	471.5923156738281	402.4117431640625	-604.4481201171875	735.5847778320312	313.0456848144531	-454.529052734375	151.921142578125	767.9005737304688	-592.8329467773438	359.3108825683594	468.9140014648438	-578.89794921875	44.67190933227539	647.5673828125	-595.5440673828125	64.3841552734375	703.1067504882812	-471.499755859375	67.95170593261719	690.8672485351562	-495.5615234375	200.0879516601562	823.4429931640625	
